# xmcd
#
# Track frame offsets:
#	150
#	9126
#	19212
#	31312
#	43995
#	56185
#	68285
#	81132
#	93465
#	107287
#	119833
#	132519
#	144675
#	154073
#	163895
#	176916
#	187973
#	199645
#	209235
#	220758
#	230414
#	243623
#	254552
#	265704
#
# Disc length: 3672 seconds
#
# Revision: 1
# Processed by: cddbd v1.5.2PL0 Copyright (c) Steve Scherf et al.
# Submitted via: audiograbber 1.83.01
#
DISCID=620e5618
DTITLE=slim whitman - seven classic albums cd3
DYEAR=2013
DGENRE=Country
TTITLE0=forever
TTITLE1=you're the only one
TTITLE2=there's a love knot in my lariat
TTITLE3=too late now
TTITLE4=i leave the milky way
TTITLE5=smoke signals
TTITLE6=cold empty arms
TTITLE7=blue river
TTITLE8=danny boy
TTITLE9=north wind
TTITLE10=darlin' don't cry
TTITLE11=i'm a fool
TTITLE12=love letters in the sand
TTITLE13=anytime
TTITLE14=tammy
TTITLE15=the wayward wind
TTITLE16=send me the pillow that you dream on
TTITLE17=valley of tears
TTITLE18=i'm walking behind you
TTITLE19=you you you
TTITLE20=just out of reach of my two open arms
TTITLE21=there's a goldmine in the sky
TTITLE22=i forget more than you'll ever know about her
TTITLE23=we live in two different worlds
EXTD=
EXTT0=
EXTT1=
EXTT2=
EXTT3=
EXTT4=
EXTT5=
EXTT6=
EXTT7=
EXTT8=
EXTT9=
EXTT10=
EXTT11=
EXTT12=
EXTT13=
EXTT14=
EXTT15=
EXTT16=
EXTT17=
EXTT18=
EXTT19=
EXTT20=
EXTT21=
EXTT22=
EXTT23=
PLAYORDER=
